<svg width="50" height="50" viewBox="0 0 50 50" fill="none" xmlns="http://www.w3.org/2000/svg">
<path d="M25 0C11.1813 0 0 11.1825 0 25C0 38.8187 11.1825 50 25 50C38.8187 50 50 38.8175 50 25C50 11.1813 38.8175 0 25 0ZM25 46.6667C13.053 46.6667 3.3333 36.9471 3.3333 25C3.3333 13.0529 13.053 3.3333 25 3.3333C36.947 3.3333 46.6667 13.053 46.6667 25C46.6667 36.947 36.947 46.6667 25 46.6667Z" fill="white"/>
<path d="M38.2339 15.8134C37.583 15.1625 36.5277 15.1625 35.8769 15.8134L21.0393 30.651L14.1233 23.7351C13.4724 23.0842 12.417 23.0842 11.7662 23.7351C11.1154 24.3859 11.1154 25.4412 11.7662 26.0921L19.8607 34.1865C20.5115 34.8373 21.5671 34.8371 22.2177 34.1865L38.2339 18.1703C38.8848 17.5194 38.8848 16.4643 38.2339 15.8134Z" fill="white"/>
</svg>
