<svg width="25" height="25" viewBox="0 0 25 25" fill="none" xmlns="http://www.w3.org/2000/svg">
<path d="M25 12.5838C25 18.5291 20.8464 23.4948 15.2839 24.7616V14.3773H18.2878V10.9098H15.2536V10.1358C15.2536 8.64959 15.904 7.44162 17.4514 7.44162C18.0714 7.44162 18.5672 7.53495 18.9703 7.6586L19.1551 4.03588C18.5048 3.8504 17.7016 3.72556 16.6482 3.72556C15.2863 3.72556 13.6444 4.1298 12.4685 5.24385C11.1054 6.48273 10.5483 8.49502 10.5483 10.3212V10.9092H8.56637V14.3767H10.5477V24.9162C4.57388 23.9775 0 18.8216 0 12.5838C0 5.68019 5.59697 0.0832215 12.5006 0.0832215C19.4042 0.082627 25 5.6796 25 12.5838Z" fill="white"/>
</svg>
