<svg width="25" height="25" viewBox="0 0 25 25" fill="none" xmlns="http://www.w3.org/2000/svg">
<path d="M12.5 25C19.4 25 25 19.4 25 12.5C25 5.6 19.4 0 12.5 0C5.6 0 0 5.6 0 12.5C0 19.4 5.6 25 12.5 25ZM16.9615 11.6073H18.751V9.81875H20.5406V11.6083H22.3146V13.3979H20.5406V15.1875H18.751V13.3979H16.9615V11.6073ZM8.93646 6.24896C10.5135 6.24896 11.9656 6.80417 13.1208 7.87708L11.4271 9.52083C10.7615 8.86979 9.85 8.55833 8.93646 8.55833C6.77396 8.55833 5.04479 10.3479 5.04479 12.4948C5.04479 14.6417 6.76875 16.4312 8.93646 16.4312C10.5792 16.4312 12.2073 15.4687 12.4698 13.7448H8.93646V11.5979H14.8292C14.8948 11.9406 14.925 12.2833 14.925 12.6406C14.925 16.2094 12.5302 18.749 8.93646 18.749V18.75C5.46875 18.75 2.68542 15.9521 2.68542 12.499C2.68542 9.04583 5.46875 6.24896 8.93646 6.24896V6.24896Z" fill="white"/>
</svg>
