<?xml version="1.0" encoding="utf-8"?>
<!-- Generator: Adobe Illustrator 24.3.0, SVG Export Plug-In . SVG Version: 6.00 Build 0)  -->
<svg version="1.1" id="Layer_1" xmlns="http://www.w3.org/2000/svg" xmlns:xlink="http://www.w3.org/1999/xlink" x="0px" y="0px"
	 viewBox="0 0 133 33" style="enable-background:new 0 0 133 33;" xml:space="preserve">
<style type="text/css">
	.st0{fill-rule:evenodd;clip-rule:evenodd;fill:#FFFFFF;}
	.st1{fill:none;}
	.st2{fill-rule:evenodd;clip-rule:evenodd;fill:#F4AF25;}
</style>
<path class="st0" d="M82,7.4h2.8v2.5h0.1c0.8-0.9,1.7-1.7,2.7-2.2C88.7,7.3,89.8,7,91,7c1.3,0,2.6,0.2,3.7,0.7
	c1.1,0.5,2,1.1,2.8,1.9c0.8,0.8,1.4,1.8,1.8,2.9c0.4,1.1,0.7,2.3,0.7,3.6c0,1.3-0.2,2.5-0.7,3.6c-0.4,1.1-1,2.1-1.8,2.9
	c-0.8,0.8-1.7,1.4-2.7,1.9c-1,0.5-2.2,0.7-3.4,0.7c-1.5,0-2.9-0.3-4-1c-1.2-0.7-2-1.5-2.5-2.5h-0.1V33H82V7.4z M84.8,16
	c0,0.9,0.1,1.7,0.4,2.5c0.3,0.8,0.7,1.4,1.2,2c0.5,0.6,1.2,1,1.9,1.4c0.7,0.3,1.6,0.5,2.5,0.5c0.9,0,1.8-0.2,2.5-0.5
	c0.7-0.3,1.4-0.8,1.9-1.4c0.5-0.6,0.9-1.2,1.2-2c0.3-0.8,0.4-1.6,0.4-2.5c0-0.9-0.1-1.7-0.4-2.5c-0.3-0.8-0.7-1.4-1.2-2
	c-0.5-0.6-1.2-1-1.9-1.4c-0.7-0.3-1.6-0.5-2.5-0.5c-0.9,0-1.8,0.2-2.5,0.5c-0.7,0.3-1.4,0.8-1.9,1.4c-0.5,0.6-0.9,1.2-1.2,2
	S84.8,15.1,84.8,16"/>
<path class="st1" d="M88.4,21.9c-0.7-0.3-1.4-0.8-1.9-1.4c-0.5-0.6-0.9-1.2-1.2-2c-0.3-0.8-0.4-1.6-0.4-2.5c0-0.9,0.1-1.7,0.4-2.5
	c0.3-0.8,0.7-1.4,1.2-2c0.5-0.6,1.2-1,1.9-1.4c0.7-0.3,1.6-0.5,2.5-0.5c0.9,0,1.8,0.2,2.5,0.5c0.7,0.3,1.4,0.8,1.9,1.4
	c0.5,0.6,0.9,1.2,1.2,2c0.3,0.8,0.4,1.6,0.4,2.5c0,0.9-0.1,1.7-0.4,2.5c-0.3,0.8-0.7,1.4-1.2,2c-0.5,0.6-1.2,1-1.9,1.4
	c-0.7,0.3-1.6,0.5-2.5,0.5C90,22.4,89.1,22.3,88.4,21.9 M87.6,7.8c-1,0.5-1.9,1.2-2.7,2.2h-0.1V7.4H82V33h2.8V21.6h0.1
	c0.5,1,1.4,1.8,2.5,2.5c1.2,0.7,2.5,1,4,1c1.2,0,2.3-0.2,3.4-0.7c1-0.5,1.9-1.1,2.7-1.9c0.8-0.8,1.4-1.8,1.8-2.9
	c0.4-1.1,0.7-2.3,0.7-3.6s-0.2-2.5-0.7-3.6c-0.4-1.1-1-2.1-1.8-2.9c-0.8-0.8-1.7-1.4-2.8-1.9C93.6,7.2,92.4,7,91,7
	C89.8,7,88.7,7.3,87.6,7.8"/>
<path class="st1" d="M88.4,21.9c-0.7-0.3-1.4-0.8-1.9-1.4c-0.5-0.6-0.9-1.2-1.2-2c-0.3-0.8-0.4-1.6-0.4-2.5s0.1-1.7,0.4-2.5
	c0.3-0.8,0.7-1.4,1.2-2c0.5-0.6,1.2-1,1.9-1.4c0.7-0.3,1.6-0.5,2.5-0.5c0.9,0,1.8,0.2,2.5,0.5c0.7,0.3,1.4,0.8,1.9,1.4
	c0.5,0.6,0.9,1.2,1.2,2c0.3,0.8,0.4,1.6,0.4,2.5s-0.1,1.7-0.4,2.5c-0.3,0.8-0.7,1.4-1.2,2c-0.5,0.6-1.2,1-1.9,1.4
	c-0.7,0.3-1.6,0.5-2.5,0.5C90,22.4,89.1,22.3,88.4,21.9 M87.6,7.8c-1,0.5-1.9,1.2-2.7,2.2h-0.1V7.4H82V33h2.8V21.6h0.1
	c0.5,1,1.4,1.8,2.5,2.5c1.2,0.7,2.5,1,4,1c1.2,0,2.3-0.2,3.4-0.7c1-0.5,1.9-1.1,2.7-1.9c0.8-0.8,1.4-1.8,1.8-2.9
	c0.4-1.1,0.7-2.3,0.7-3.6s-0.2-2.5-0.7-3.6c-0.4-1.1-1-2.1-1.8-2.9c-0.8-0.8-1.7-1.4-2.8-1.9C93.6,7.2,92.4,7,91,7
	C89.8,7,88.7,7.3,87.6,7.8"/>
<path class="st0" d="M124.7,28.1c-0.3,0.7-0.6,1.4-0.9,2c-0.3,0.6-0.7,1.1-1.1,1.5c-0.4,0.4-0.9,0.8-1.5,1c-0.6,0.2-1.3,0.3-2.2,0.3
	c-0.4,0-0.9,0-1.3-0.1c-0.5,0-0.9-0.2-1.3-0.4l0.4-2.5c0.3,0.1,0.6,0.2,0.9,0.2c0.3,0,0.7,0.1,1.1,0.1c0.9,0,1.6-0.3,2.1-0.8
	c0.4-0.5,0.8-1.2,1.1-2.1l1.2-3.2L116,7h3.3l5.3,13.5h0.1L129.9,7h3.1L124.7,28.1z"/>
<path class="st1" d="M129.9,7l-5.1,13.5h-0.1L119.3,7H116l7.1,17.3l-1.2,3.2c-0.3,0.9-0.7,1.5-1.1,2.1c-0.4,0.5-1.1,0.8-2.1,0.8
	c-0.4,0-0.8,0-1.1-0.1c-0.3,0-0.6-0.1-0.9-0.2l-0.4,2.5c0.4,0.2,0.8,0.3,1.3,0.4c0.5,0,0.9,0.1,1.3,0.1c0.9,0,1.6-0.1,2.2-0.3
	c0.6-0.2,1.1-0.6,1.5-1c0.4-0.4,0.8-0.9,1.1-1.5c0.3-0.6,0.6-1.3,0.9-2L133,7H129.9z"/>
<path class="st1" d="M129.9,7l-5.1,13.5h-0.1L119.3,7H116l7.1,17.3l-1.2,3.2c-0.3,0.9-0.7,1.5-1.1,2.1c-0.4,0.5-1.1,0.8-2.1,0.8
	c-0.4,0-0.8,0-1.1-0.1c-0.3,0-0.6-0.1-0.9-0.2l-0.4,2.5c0.4,0.2,0.8,0.3,1.3,0.4c0.5,0,0.9,0.1,1.3,0.1c0.9,0,1.6-0.1,2.2-0.3
	c0.6-0.2,1.1-0.6,1.5-1c0.4-0.4,0.8-0.9,1.1-1.5c0.3-0.6,0.6-1.3,0.9-2L133,7H129.9z"/>
<path class="st2" d="M5.5,19.3c0.3,0.6,0.7,1.1,1.1,1.4c0.5,0.4,1,0.6,1.7,0.8c0.6,0.2,1.3,0.3,2,0.3c0.5,0,1,0,1.5-0.1
	c0.5-0.1,1-0.2,1.5-0.5c0.5-0.2,0.9-0.6,1.2-1c0.3-0.4,0.5-0.9,0.5-1.5c0-0.7-0.2-1.2-0.6-1.6c-0.4-0.4-0.9-0.8-1.6-1
	c-0.7-0.3-1.4-0.5-2.3-0.7c-0.8-0.2-1.7-0.4-2.6-0.7c-0.9-0.2-1.8-0.5-2.6-0.9C4.4,13.4,3.7,13,3,12.4c-0.7-0.5-1.2-1.2-1.6-2
	C1,9.6,0.8,8.7,0.8,7.5c0-1.3,0.3-2.4,0.8-3.3c0.5-0.9,1.2-1.7,2-2.3c0.8-0.6,1.8-1.1,2.9-1.4C7.6,0.2,8.6,0,9.7,0
	c1.2,0,2.4,0.1,3.6,0.4c1.1,0.3,2.2,0.8,3,1.4c0.9,0.6,1.6,1.5,2.1,2.5c0.5,1,0.8,2.2,0.8,3.7h-5.1c0-0.7-0.2-1.4-0.4-1.8
	c-0.3-0.5-0.6-0.9-1-1.1c-0.4-0.3-0.9-0.5-1.4-0.6c-0.5-0.1-1.1-0.2-1.8-0.2c-0.4,0-0.8,0-1.3,0.1C7.8,4.5,7.4,4.6,7,4.9
	C6.7,5.1,6.4,5.4,6.2,5.7C6,6.1,5.9,6.5,5.9,7.1c0,0.5,0.1,0.9,0.3,1.2c0.2,0.3,0.5,0.6,1,0.8c0.5,0.3,1.2,0.5,2.2,0.8
	c0.9,0.3,2.1,0.6,3.6,1c0.4,0.1,1.1,0.3,1.8,0.5c0.8,0.2,1.6,0.6,2.3,1.2c0.8,0.5,1.4,1.2,2,2.1c0.6,0.9,0.8,2,0.8,3.4
	c0,1.1-0.2,2.2-0.6,3.2c-0.4,1-1,1.8-1.9,2.5c-0.8,0.7-1.9,1.3-3.1,1.7c-1.2,0.4-2.7,0.6-4.3,0.6c-1.3,0-2.6-0.2-3.8-0.5
	C5.1,25.2,4,24.6,3,23.9c-0.9-0.7-1.7-1.6-2.2-2.7C0.2,20,0,18.7,0,17.2h5.1C5.1,18,5.2,18.7,5.5,19.3"/>
<path class="st2" d="M33.6,16.7c-0.2,0.2-0.5,0.3-0.8,0.4c-0.3,0.1-0.6,0.2-1,0.3c-0.3,0.1-0.7,0.1-1.1,0.2c-0.4,0-0.8,0.1-1.1,0.2
	c-0.4,0.1-0.7,0.2-1.1,0.3c-0.3,0.1-0.7,0.3-0.9,0.5c-0.3,0.2-0.5,0.4-0.6,0.8c-0.2,0.3-0.2,0.7-0.2,1.2c0,0.4,0.1,0.8,0.2,1.1
	c0.2,0.3,0.4,0.5,0.6,0.7c0.3,0.2,0.6,0.3,0.9,0.4c0.4,0.1,0.7,0.1,1.1,0.1c0.9,0,1.7-0.2,2.2-0.5c0.5-0.3,0.9-0.7,1.1-1.2
	c0.2-0.5,0.4-0.9,0.5-1.4s0.1-0.8,0.1-1.1V16.7z M30.7,7c0.9,0,1.8,0.1,2.7,0.2c0.9,0.1,1.7,0.4,2.5,0.8c0.7,0.4,1.3,0.9,1.8,1.6
	c0.5,0.7,0.7,1.5,0.7,2.6v9.4c0,0.8,0,1.6,0.1,2.3c0.1,0.7,0.2,1.3,0.5,1.7h-4.9c-0.1-0.3-0.2-0.6-0.2-0.9c-0.1-0.3-0.1-0.6-0.1-0.9
	c-0.8,0.8-1.7,1.4-2.7,1.7c-1,0.3-2.1,0.5-3.2,0.5c-0.8,0-1.6-0.1-2.3-0.3c-0.7-0.2-1.3-0.5-1.9-1c-0.5-0.4-1-1-1.3-1.7
	c-0.3-0.7-0.5-1.5-0.5-2.4c0-1,0.2-1.9,0.5-2.5c0.3-0.7,0.8-1.2,1.3-1.6c0.6-0.4,1.2-0.7,1.9-0.9c0.7-0.2,1.4-0.4,2.1-0.5
	c0.7-0.1,1.4-0.2,2.1-0.3c0.7-0.1,1.3-0.2,1.9-0.3c0.5-0.1,1-0.3,1.3-0.6c0.3-0.3,0.5-0.7,0.4-1.2c0-0.5-0.1-1-0.3-1.3
	c-0.2-0.3-0.4-0.6-0.7-0.7c-0.3-0.2-0.6-0.3-1-0.4c-0.4-0.1-0.8-0.1-1.2-0.1c-0.9,0-1.7,0.2-2.2,0.6c-0.5,0.4-0.9,1.1-0.9,2.1h-4.8
	c0.1-1.2,0.3-2.1,0.8-2.9c0.5-0.8,1.1-1.4,1.9-1.9c0.8-0.5,1.6-0.8,2.6-1C28.8,7.1,29.8,7,30.7,7"/>
<path class="st2" d="M40,10.8V7.6h2.8V6.3c0-1.5,0.5-2.8,1.4-3.8c0.9-1,2.4-1.5,4.3-1.5c0.4,0,0.8,0,1.3,0c0.4,0,0.8,0.1,1.2,0.1
	v3.6c-0.6-0.1-1.1-0.1-1.7-0.1c-0.6,0-1.1,0.2-1.4,0.5c-0.3,0.3-0.4,0.8-0.4,1.5v1h3.2v3.2h-3.2V25h-4.7V10.8H40z"/>
<path class="st2" d="M56.5,7.5v3.3h0.1c0.2-0.5,0.5-1,0.9-1.5c0.4-0.5,0.8-0.9,1.3-1.2c0.5-0.3,1-0.6,1.6-0.8C60.8,7.1,61.4,7,62,7
	c0.3,0,0.6,0.1,1,0.2v4.5c-0.2,0-0.5-0.1-0.8-0.1c-0.3,0-0.6-0.1-0.9-0.1c-0.9,0-1.6,0.1-2.2,0.4c-0.6,0.3-1.1,0.7-1.4,1.2
	c-0.4,0.5-0.6,1.1-0.8,1.8c-0.2,0.7-0.2,1.4-0.2,2.2V25H52V7.5H56.5z"/>
<path class="st0" d="M120.8,22.1h-3.8c-0.2,0-0.3-0.1-0.3-0.3v-7.6c0-2.4-0.6-4.3-1.7-5.5C114,7.6,112.2,7,109.7,7H99
	c0.5,0.3,0.8,0.7,1.2,1.1c0.4,0.4,0.8,0.9,1.1,1.4h9.2c0.9,0.1,1.7,0.5,2.2,1c0.7,0.6,1.1,1.6,1.1,2.8v0.5h-1.1c-1,0-2.2,0-3.4,0.1
	c-1.2,0.1-2.4,0.3-3.5,0.7c-1.1,0.4-2,1-2.7,1.8c-0.7,0.8-1.1,1.9-1.1,3.3c0,0.8,0.2,1.6,0.5,2.2c0.3,0.6,0.8,1.2,1.4,1.6
	c0.6,0.4,1.2,0.8,2,1c0.8,0.2,1.6,0.3,2.4,0.3c1.3,0,2.4-0.3,3.3-0.8c0.9-0.5,1.6-1.2,2.1-2c0.2,1.6,1.5,2.9,3.1,2.9h4.9L120.8,22.1
	z M112.7,21c-0.4,0.5-0.9,0.8-1.5,1.1c-0.6,0.3-1.3,0.4-2.1,0.4c-1.1,0-1.9-0.2-2.6-0.7c-0.7-0.5-1.1-1.2-1.1-2.3
	c0-1.2,0.5-2,1.6-2.5c1.1-0.5,2.5-0.8,4.3-0.8h2.8v1.1c0,0.7-0.1,1.4-0.4,2C113.4,20,113.1,20.6,112.7,21"/>
<path class="st1" d="M106.4,21.9c-0.7-0.5-1.1-1.2-1.1-2.3c0-1.2,0.5-2,1.6-2.5c1.1-0.5,2.5-0.8,4.3-0.8h2.8v1.1
	c0,0.7-0.1,1.4-0.4,2c-0.2,0.6-0.5,1.2-0.9,1.6c-0.4,0.5-0.9,0.8-1.5,1.1c-0.6,0.3-1.3,0.4-2.1,0.4
	C107.9,22.6,107.1,22.4,106.4,21.9 M99,7c0.4,0.3,0.8,0.7,1.2,1.1c0.4,0.4,0.8,0.9,1.2,1.4h9.2c0.9,0.1,1.7,0.5,2.2,1
	c0.7,0.6,1.1,1.6,1.1,2.8v0.5h-1.1c-1,0-2.2,0-3.4,0.1c-1.2,0.1-2.4,0.3-3.5,0.7c-1.1,0.4-2,1-2.7,1.8c-0.7,0.8-1.1,1.9-1.1,3.3
	c0,0.8,0.2,1.6,0.5,2.2c0.3,0.6,0.8,1.2,1.3,1.6c0.6,0.4,1.2,0.8,2,1c0.8,0.2,1.6,0.3,2.4,0.3c1.3,0,2.4-0.3,3.3-0.8
	c0.9-0.5,1.6-1.2,2.1-2c0.2,1.6,1.5,2.9,3.1,2.9h4.9l-1.2-2.9h-3.7c-0.2,0-0.3-0.1-0.3-0.3v-7.6c0-2.4-0.6-4.3-1.7-5.5
	C114,7.6,112.2,7,109.7,7H99z"/>
<path class="st1" d="M106.4,21.9c-0.7-0.5-1.1-1.2-1.1-2.3c0-1.2,0.5-2,1.6-2.5c1.1-0.5,2.5-0.8,4.3-0.8h2.8v1.1
	c0,0.7-0.1,1.4-0.4,2c-0.2,0.6-0.5,1.2-0.9,1.6c-0.4,0.5-0.9,0.8-1.5,1.1c-0.6,0.3-1.3,0.4-2.1,0.4
	C107.9,22.6,107.1,22.4,106.4,21.9 M99,7c0.4,0.3,0.8,0.7,1.2,1.1c0.4,0.4,0.8,0.9,1.1,1.4h9.2c0.9,0.1,1.7,0.5,2.2,1
	c0.7,0.6,1.1,1.6,1.1,2.8v0.5h-1.1c-1,0-2.2,0-3.4,0.1c-1.2,0.1-2.4,0.3-3.5,0.7c-1.1,0.4-2,1-2.7,1.8c-0.7,0.8-1.1,1.9-1.1,3.3
	c0,0.8,0.2,1.6,0.5,2.2c0.3,0.6,0.8,1.2,1.3,1.6c0.6,0.4,1.2,0.8,2,1c0.8,0.2,1.6,0.3,2.4,0.3c1.3,0,2.4-0.3,3.3-0.8
	c0.9-0.5,1.6-1.2,2.1-2c0.2,1.6,1.5,2.9,3.1,2.9h4.9l-1.2-2.9h-3.8c-0.2,0-0.3-0.1-0.3-0.3v-7.6c0-2.4-0.6-4.3-1.7-5.5
	C114,7.6,112.2,7,109.7,7H99z"/>
<path class="st2" d="M75.6,16.7c-0.2,0.2-0.5,0.3-0.8,0.4c-0.3,0.1-0.6,0.2-1,0.3c-0.3,0.1-0.7,0.1-1.1,0.2c-0.4,0-0.8,0.1-1.1,0.2
	c-0.4,0.1-0.7,0.2-1.1,0.3c-0.3,0.1-0.7,0.3-0.9,0.5c-0.3,0.2-0.5,0.4-0.6,0.8c-0.2,0.3-0.2,0.7-0.2,1.2c0,0.4,0.1,0.8,0.2,1.1
	c0.2,0.3,0.4,0.5,0.6,0.7c0.3,0.2,0.6,0.3,0.9,0.4c0.4,0.1,0.7,0.1,1.1,0.1c0.9,0,1.7-0.2,2.2-0.5c0.5-0.3,0.9-0.7,1.1-1.2
	c0.2-0.5,0.4-0.9,0.5-1.4s0.1-0.8,0.1-1.1V16.7z M72.7,7c0.9,0,1.8,0.1,2.7,0.2c0.9,0.1,1.7,0.4,2.5,0.8c0.7,0.4,1.3,0.9,1.8,1.6
	c0.5,0.7,0.7,1.5,0.7,2.6v9.4c0,0.8,0,1.6,0.1,2.3c0.1,0.7,0.2,1.3,0.5,1.7h-4.9c-0.1-0.3-0.2-0.6-0.2-0.9c-0.1-0.3-0.1-0.6-0.1-0.9
	c-0.8,0.8-1.7,1.4-2.7,1.7c-1,0.3-2.1,0.5-3.2,0.5c-0.8,0-1.6-0.1-2.3-0.3c-0.7-0.2-1.3-0.5-1.9-1c-0.5-0.4-1-1-1.3-1.7
	c-0.3-0.7-0.5-1.5-0.5-2.4c0-1,0.2-1.9,0.5-2.5c0.3-0.7,0.8-1.2,1.3-1.6c0.6-0.4,1.2-0.7,1.9-0.9c0.7-0.2,1.4-0.4,2.1-0.5
	c0.7-0.1,1.4-0.2,2.1-0.3c0.7-0.1,1.3-0.2,1.9-0.3c0.5-0.1,1-0.3,1.3-0.6c0.3-0.3,0.5-0.7,0.4-1.2c0-0.5-0.1-1-0.3-1.3
	c-0.2-0.3-0.4-0.6-0.7-0.7c-0.3-0.2-0.6-0.3-1-0.4c-0.4-0.1-0.8-0.1-1.2-0.1c-0.9,0-1.7,0.2-2.2,0.6c-0.5,0.4-0.9,1.1-0.9,2.1h-4.8
	c0.1-1.2,0.3-2.1,0.8-2.9c0.5-0.8,1.1-1.4,1.9-1.9c0.8-0.5,1.6-0.8,2.6-1C70.8,7.1,71.8,7,72.7,7"/>
</svg>
